<mxfile host="app.diagrams.net" agent="Mozilla/5.0 (Windows NT 10.0; Win64; x64) AppleWebKit/537.36 (KHTML, like Gecko) Chrome/138.0.0.0 Safari/537.36 Edg/138.0.0.0" version="28.0.1">
  <diagram name="Page-1" id="Sqly4A1CR8OW14GbjRbu">
    <mxGraphModel dx="916" dy="504" grid="1" gridSize="10" guides="1" tooltips="1" connect="1" arrows="1" fold="1" page="1" pageScale="1" pageWidth="850" pageHeight="1100" math="0" shadow="0">
      <root>
        <mxCell id="0" />
        <mxCell id="1" parent="0" />
        <mxCell id="v7fJk_tXxCjoUoqcx3kz-2" value="Router53" style="outlineConnect=0;dashed=0;verticalLabelPosition=bottom;verticalAlign=top;align=center;html=1;shape=mxgraph.aws3.router;fillColor=#F58536;gradientColor=none;" vertex="1" parent="1">
          <mxGeometry x="260" y="150" width="69" height="72" as="geometry" />
        </mxCell>
        <mxCell id="v7fJk_tXxCjoUoqcx3kz-16" style="edgeStyle=orthogonalEdgeStyle;rounded=0;orthogonalLoop=1;jettySize=auto;html=1;" edge="1" parent="1" source="v7fJk_tXxCjoUoqcx3kz-3" target="v7fJk_tXxCjoUoqcx3kz-10">
          <mxGeometry relative="1" as="geometry" />
        </mxCell>
        <mxCell id="v7fJk_tXxCjoUoqcx3kz-18" value="VPC Link" style="edgeLabel;html=1;align=center;verticalAlign=middle;resizable=0;points=[];" vertex="1" connectable="0" parent="v7fJk_tXxCjoUoqcx3kz-16">
          <mxGeometry x="0.2153" y="-2" relative="1" as="geometry">
            <mxPoint as="offset" />
          </mxGeometry>
        </mxCell>
        <mxCell id="v7fJk_tXxCjoUoqcx3kz-3" value="API GW" style="sketch=0;points=[[0,0,0],[0.25,0,0],[0.5,0,0],[0.75,0,0],[1,0,0],[0,1,0],[0.25,1,0],[0.5,1,0],[0.75,1,0],[1,1,0],[0,0.25,0],[0,0.5,0],[0,0.75,0],[1,0.25,0],[1,0.5,0],[1,0.75,0]];outlineConnect=0;fontColor=#232F3E;fillColor=#E7157B;strokeColor=#ffffff;dashed=0;verticalLabelPosition=bottom;verticalAlign=top;align=center;html=1;fontSize=12;fontStyle=0;aspect=fixed;shape=mxgraph.aws4.resourceIcon;resIcon=mxgraph.aws4.api_gateway;" vertex="1" parent="1">
          <mxGeometry x="255.5" y="340" width="78" height="78" as="geometry" />
        </mxCell>
        <mxCell id="v7fJk_tXxCjoUoqcx3kz-4" value="" style="endArrow=none;dashed=1;html=1;rounded=0;exitX=0.5;exitY=0;exitDx=0;exitDy=0;exitPerimeter=0;entryX=0.5;entryY=1;entryDx=0;entryDy=0;entryPerimeter=0;" edge="1" parent="1" source="v7fJk_tXxCjoUoqcx3kz-3" target="v7fJk_tXxCjoUoqcx3kz-2">
          <mxGeometry width="50" height="50" relative="1" as="geometry">
            <mxPoint x="400" y="290" as="sourcePoint" />
            <mxPoint x="450" y="240" as="targetPoint" />
          </mxGeometry>
        </mxCell>
        <mxCell id="v7fJk_tXxCjoUoqcx3kz-8" value="cname" style="edgeLabel;html=1;align=center;verticalAlign=middle;resizable=0;points=[];" vertex="1" connectable="0" parent="v7fJk_tXxCjoUoqcx3kz-4">
          <mxGeometry x="-0.2108" y="-2" relative="1" as="geometry">
            <mxPoint as="offset" />
          </mxGeometry>
        </mxCell>
        <mxCell id="v7fJk_tXxCjoUoqcx3kz-6" style="edgeStyle=orthogonalEdgeStyle;rounded=0;orthogonalLoop=1;jettySize=auto;html=1;" edge="1" parent="1">
          <mxGeometry relative="1" as="geometry">
            <mxPoint x="250" y="384" as="targetPoint" />
            <mxPoint x="90" y="384" as="sourcePoint" />
            <Array as="points">
              <mxPoint x="170" y="384" />
              <mxPoint x="170" y="385" />
            </Array>
          </mxGeometry>
        </mxCell>
        <mxCell id="v7fJk_tXxCjoUoqcx3kz-7" value="https" style="edgeLabel;html=1;align=center;verticalAlign=middle;resizable=0;points=[];" vertex="1" connectable="0" parent="v7fJk_tXxCjoUoqcx3kz-6">
          <mxGeometry x="0.0272" y="3" relative="1" as="geometry">
            <mxPoint as="offset" />
          </mxGeometry>
        </mxCell>
        <mxCell id="v7fJk_tXxCjoUoqcx3kz-5" value="" style="shape=actor;whiteSpace=wrap;html=1;" vertex="1" parent="1">
          <mxGeometry x="50" y="349" width="40" height="60" as="geometry" />
        </mxCell>
        <mxCell id="v7fJk_tXxCjoUoqcx3kz-9" value="VPC" style="sketch=0;outlineConnect=0;gradientColor=none;html=1;whiteSpace=wrap;fontSize=12;fontStyle=0;shape=mxgraph.aws4.group;grIcon=mxgraph.aws4.group_vpc;strokeColor=#879196;fillColor=none;verticalAlign=top;align=left;spacingLeft=30;fontColor=#879196;dashed=0;" vertex="1" parent="1">
          <mxGeometry x="430" y="250" width="380" height="252" as="geometry" />
        </mxCell>
        <mxCell id="v7fJk_tXxCjoUoqcx3kz-14" style="edgeStyle=orthogonalEdgeStyle;rounded=0;orthogonalLoop=1;jettySize=auto;html=1;" edge="1" parent="1" source="v7fJk_tXxCjoUoqcx3kz-10" target="v7fJk_tXxCjoUoqcx3kz-12">
          <mxGeometry relative="1" as="geometry" />
        </mxCell>
        <mxCell id="v7fJk_tXxCjoUoqcx3kz-15" style="edgeStyle=orthogonalEdgeStyle;rounded=0;orthogonalLoop=1;jettySize=auto;html=1;" edge="1" parent="1" source="v7fJk_tXxCjoUoqcx3kz-10" target="v7fJk_tXxCjoUoqcx3kz-13">
          <mxGeometry relative="1" as="geometry" />
        </mxCell>
        <mxCell id="v7fJk_tXxCjoUoqcx3kz-10" value="Internal Function" style="sketch=0;points=[[0,0,0],[0.25,0,0],[0.5,0,0],[0.75,0,0],[1,0,0],[0,1,0],[0.25,1,0],[0.5,1,0],[0.75,1,0],[1,1,0],[0,0.25,0],[0,0.5,0],[0,0.75,0],[1,0.25,0],[1,0.5,0],[1,0.75,0]];outlineConnect=0;fontColor=#232F3E;fillColor=#ED7100;strokeColor=#ffffff;dashed=0;verticalLabelPosition=bottom;verticalAlign=top;align=center;html=1;fontSize=12;fontStyle=0;aspect=fixed;shape=mxgraph.aws4.resourceIcon;resIcon=mxgraph.aws4.lambda;" vertex="1" parent="1">
          <mxGeometry x="470" y="339" width="78" height="78" as="geometry" />
        </mxCell>
        <mxCell id="v7fJk_tXxCjoUoqcx3kz-11" value="" style="sketch=0;points=[[0,0,0],[0.25,0,0],[0.5,0,0],[0.75,0,0],[1,0,0],[0,1,0],[0.25,1,0],[0.5,1,0],[0.75,1,0],[1,1,0],[0,0.25,0],[0,0.5,0],[0,0.75,0],[1,0.25,0],[1,0.5,0],[1,0.75,0]];outlineConnect=0;fontColor=#232F3E;fillColor=#ED7100;strokeColor=#ffffff;dashed=0;verticalLabelPosition=bottom;verticalAlign=top;align=center;html=1;fontSize=12;fontStyle=0;aspect=fixed;shape=mxgraph.aws4.resourceIcon;resIcon=mxgraph.aws4.lambda;" vertex="1" parent="1">
          <mxGeometry x="470" y="600" width="78" height="78" as="geometry" />
        </mxCell>
        <mxCell id="v7fJk_tXxCjoUoqcx3kz-12" value="RDS" style="outlineConnect=0;dashed=0;verticalLabelPosition=bottom;verticalAlign=top;align=center;html=1;shape=mxgraph.aws3.rds;fillColor=#2E73B8;gradientColor=none;" vertex="1" parent="1">
          <mxGeometry x="680" y="280" width="72" height="81" as="geometry" />
        </mxCell>
        <mxCell id="v7fJk_tXxCjoUoqcx3kz-13" value="S3" style="outlineConnect=0;dashed=0;verticalLabelPosition=bottom;verticalAlign=top;align=center;html=1;shape=mxgraph.aws3.s3;fillColor=#E05243;gradientColor=none;" vertex="1" parent="1">
          <mxGeometry x="680" y="390" width="76.5" height="93" as="geometry" />
        </mxCell>
        <mxCell id="v7fJk_tXxCjoUoqcx3kz-17" style="edgeStyle=orthogonalEdgeStyle;rounded=0;orthogonalLoop=1;jettySize=auto;html=1;entryX=0;entryY=0.5;entryDx=0;entryDy=0;entryPerimeter=0;" edge="1" parent="1" source="v7fJk_tXxCjoUoqcx3kz-3" target="v7fJk_tXxCjoUoqcx3kz-11">
          <mxGeometry relative="1" as="geometry">
            <Array as="points">
              <mxPoint x="295" y="639" />
            </Array>
          </mxGeometry>
        </mxCell>
      </root>
    </mxGraphModel>
  </diagram>
</mxfile>
